<svg width="30" height="26" viewBox="0 0 30 26" fill="none" xmlns="http://www.w3.org/2000/svg">
<path d="M19.3715 0.863525L13.2303 2.3989L22.4276 6.57959L28.5691 5.04421L19.3715 0.863525ZM12.1117 3.10553V5.82353L21.8214 10.2371V7.51902L12.1117 3.10553ZM29.6875 5.90478L22.9276 7.59478V11.5278C21.6165 11.8554 20.3055 12.1833 18.9945 12.5111V16.4442C17.6834 16.7717 16.3724 17.0997 15.0614 17.4274V21.3605C13.7504 21.688 12.4394 22.016 11.1284 22.3437V25.1367L29.6875 20.4968V5.90478ZM11.5054 6.76309L9.29712 7.31521L18.4946 11.4959L20.703 10.9438L11.5054 6.76309ZM8.17863 8.02184V10.7398L17.8883 15.1534V12.4353L8.17863 8.02184ZM7.57238 11.6794L5.36406 12.2315L14.5616 16.4122L16.7699 15.8601L7.57238 11.6794ZM4.2455 12.9382V15.6562L13.9553 20.0697V17.3517L4.2455 12.9382ZM3.63925 16.5958L1.43106 17.1479L10.6285 21.3285L12.8369 20.7764L3.63925 16.5958ZM0.3125 17.8545V20.5724L10.0223 24.986V22.268L0.3125 17.8545Z" fill="#545454"/>
</svg>
