<svg width="16" height="12" viewBox="0 0 16 12" fill="none" xmlns="http://www.w3.org/2000/svg">
<path d="M11.943 5.498L7.888 10.003C7.37773 10.0316 6.89778 10.2545 6.54668 10.6259C6.19558 10.9972 5.99996 11.4889 6 12H10C9.99997 11.7333 9.94661 11.4693 9.84305 11.2236C9.7395 10.9778 9.58784 10.7553 9.397 10.569L13.057 6.502C13.1254 6.42927 13.1785 6.34363 13.2134 6.25009C13.2482 6.15656 13.264 6.057 13.2599 5.95728C13.2557 5.85755 13.2317 5.75965 13.1893 5.66931C13.1468 5.57898 13.0868 5.49803 13.0126 5.4312C12.9385 5.36438 12.8518 5.31303 12.7575 5.28016C12.6633 5.24729 12.5634 5.23356 12.4638 5.23978C12.3642 5.246 12.2668 5.27205 12.1774 5.31639C12.0879 5.36073 12.0083 5.42247 11.943 5.498ZM1 10.25C0.801088 10.25 0.610322 10.329 0.46967 10.4697C0.329018 10.6103 0.25 10.8011 0.25 11C0.25 11.1989 0.329018 11.3897 0.46967 11.5303C0.610322 11.671 0.801088 11.75 1 11.75H2.5C2.69891 11.75 2.88968 11.671 3.03033 11.5303C3.17098 11.3897 3.25 11.1989 3.25 11C3.25 10.8011 3.17098 10.6103 3.03033 10.4697C2.88968 10.329 2.69891 10.25 2.5 10.25H1ZM15.75 11C15.75 10.8011 15.671 10.6103 15.5303 10.4697C15.3897 10.329 15.1989 10.25 15 10.25H13.5C13.3011 10.25 13.1103 10.329 12.9697 10.4697C12.829 10.6103 12.75 10.8011 12.75 11C12.75 11.1989 12.829 11.3897 12.9697 11.5303C13.1103 11.671 13.3011 11.75 13.5 11.75H15C15.1989 11.75 15.3897 11.671 15.5303 11.5303C15.671 11.3897 15.75 11.1989 15.75 11ZM8.75 1C8.75 0.801088 8.67098 0.610322 8.53033 0.46967C8.38968 0.329018 8.19891 0.25 8 0.25C7.80109 0.25 7.61032 0.329018 7.46967 0.46967C7.32902 0.610322 7.25 0.801088 7.25 1V2.5C7.25 2.69891 7.32902 2.88968 7.46967 3.03033C7.61032 3.17098 7.80109 3.25 8 3.25C8.19891 3.25 8.38968 3.17098 8.53033 3.03033C8.67098 2.88968 8.75 2.69891 8.75 2.5V1Z" fill="#777777"/>
</svg>
