<svg width="269" height="32" viewBox="0 0 269 32" fill="none" xmlns="http://www.w3.org/2000/svg">
<path d="M41.525 11.3731C42.026 9.40756 40.8388 7.40802 38.8733 6.907C36.9077 6.40598 34.9082 7.59321 34.4072 9.55875C33.9062 11.5243 35.0934 13.5238 37.0589 14.0249C39.0245 14.5259 41.024 13.3386 41.525 11.3731Z" fill="#FF5C02"/>
<path d="M28.6393 11.2545C31.5179 8.31835 26.4709 5.36721 23.8333 8.05688C23.6853 8.17813 6.5818 25.408 6.46606 25.5515C3.42686 28.6513 8.26183 31.8189 11.2721 28.7492C11.4199 28.6278 28.5236 11.3979 28.6393 11.2545Z" fill="#FF5C02"/>
<path d="M32.6456 18.4136C35.5062 15.5066 30.4997 12.2385 27.6704 15.1134C27.5158 15.2393 15.4846 27.3589 15.3638 27.5081C12.4844 30.5454 17.4908 33.8135 20.339 30.8084C20.4936 30.6825 32.525 18.5629 32.6456 18.4136Z" fill="#FF5C02"/>
<path d="M5.54466 23.1714C7.44043 22.4501 8.39251 20.3286 7.6712 18.4328C6.9499 16.537 4.82834 15.585 2.93258 16.3063C1.03682 17.0276 0.0847346 19.1491 0.806041 21.0449C1.52735 22.9406 3.6489 23.8927 5.54466 23.1714Z" fill="#FF5C02"/>
<path d="M61.7273 6.54545V24H59.6136V6.54545H61.7273ZM67.7038 16.125V24H65.6925V10.9091H67.6357V12.9545H67.8061C68.1129 12.2898 68.5788 11.7557 69.2038 11.3523C69.8288 10.9432 70.6357 10.7386 71.6243 10.7386C72.5107 10.7386 73.2862 10.9205 73.951 11.2841C74.6158 11.642 75.1328 12.1875 75.5021 12.9205C75.8714 13.6477 76.0561 14.5682 76.0561 15.6818V24H74.0447V15.8182C74.0447 14.7898 73.7777 13.9886 73.2436 13.4148C72.7095 12.8352 71.9766 12.5455 71.0447 12.5455C70.4027 12.5455 69.8288 12.6847 69.3232 12.9631C68.8232 13.2415 68.4283 13.6477 68.1385 14.1818C67.8487 14.7159 67.7038 15.3636 67.7038 16.125ZM81.7429 16.125V24H79.7315V10.9091H81.6747V12.9545H81.8452C82.152 12.2898 82.6179 11.7557 83.2429 11.3523C83.8679 10.9432 84.6747 10.7386 85.6634 10.7386C86.5497 10.7386 87.3253 10.9205 87.9901 11.2841C88.6548 11.642 89.1719 12.1875 89.5412 12.9205C89.9105 13.6477 90.0952 14.5682 90.0952 15.6818V24H88.0838V15.8182C88.0838 14.7898 87.8168 13.9886 87.2827 13.4148C86.7486 12.8352 86.0156 12.5455 85.0838 12.5455C84.4418 12.5455 83.8679 12.6847 83.3622 12.9631C82.8622 13.2415 82.4673 13.6477 82.1776 14.1818C81.8878 14.7159 81.7429 15.3636 81.7429 16.125ZM99.0888 24.2727C97.907 24.2727 96.87 23.9915 95.978 23.429C95.0916 22.8665 94.3984 22.0795 93.8984 21.0682C93.4041 20.0568 93.157 18.875 93.157 17.5227C93.157 16.1591 93.4041 14.9687 93.8984 13.9517C94.3984 12.9347 95.0916 12.1449 95.978 11.5824C96.87 11.0199 97.907 10.7386 99.0888 10.7386C100.271 10.7386 101.305 11.0199 102.191 11.5824C103.083 12.1449 103.776 12.9347 104.271 13.9517C104.771 14.9687 105.021 16.1591 105.021 17.5227C105.021 18.875 104.771 20.0568 104.271 21.0682C103.776 22.0795 103.083 22.8665 102.191 23.429C101.305 23.9915 100.271 24.2727 99.0888 24.2727ZM99.0888 22.4659C99.9865 22.4659 100.725 22.2358 101.305 21.7756C101.884 21.3153 102.313 20.7102 102.592 19.9602C102.87 19.2102 103.009 18.3977 103.009 17.5227C103.009 16.6477 102.87 15.8324 102.592 15.0767C102.313 14.321 101.884 13.7102 101.305 13.2443C100.725 12.7784 99.9865 12.5455 99.0888 12.5455C98.1911 12.5455 97.4524 12.7784 96.8729 13.2443C96.2933 13.7102 95.8643 14.321 95.5859 15.0767C95.3075 15.8324 95.1683 16.6477 95.1683 17.5227C95.1683 18.3977 95.3075 19.2102 95.5859 19.9602C95.8643 20.7102 96.2933 21.3153 96.8729 21.7756C97.4524 22.2358 98.1911 22.4659 99.0888 22.4659ZM118.327 10.9091L113.486 24H111.44L106.599 10.9091H108.781L112.395 21.3409H112.531L116.145 10.9091H118.327ZM125.831 24.2727C124.604 24.2727 123.547 23.983 122.661 23.4034C121.774 22.8239 121.092 22.0256 120.615 21.0085C120.138 19.9915 119.899 18.8295 119.899 17.5227C119.899 16.1932 120.143 15.0199 120.632 14.0028C121.126 12.9801 121.814 12.1818 122.695 11.608C123.581 11.0284 124.615 10.7386 125.797 10.7386C126.717 10.7386 127.547 10.9091 128.286 11.25C129.024 11.5909 129.629 12.0682 130.101 12.6818C130.572 13.2955 130.865 14.0114 130.979 14.8295H128.967C128.814 14.233 128.473 13.7045 127.945 13.2443C127.422 12.7784 126.717 12.5455 125.831 12.5455C125.047 12.5455 124.359 12.75 123.768 13.1591C123.183 13.5625 122.726 14.1335 122.396 14.8722C122.072 15.6051 121.911 16.4659 121.911 17.4545C121.911 18.4659 122.07 19.3466 122.388 20.0966C122.712 20.8466 123.166 21.429 123.751 21.8438C124.342 22.2585 125.036 22.4659 125.831 22.4659C126.354 22.4659 126.828 22.375 127.254 22.1932C127.68 22.0114 128.041 21.75 128.337 21.4091C128.632 21.0682 128.842 20.6591 128.967 20.1818H130.979C130.865 20.9545 130.584 21.6506 130.135 22.2699C129.692 22.8835 129.104 23.3722 128.371 23.7358C127.643 24.0938 126.797 24.2727 125.831 24.2727ZM135.93 16.125V24H133.919V6.54545H135.93V12.9545H136.101C136.408 12.2784 136.868 11.7415 137.482 11.3438C138.101 10.9403 138.925 10.7386 139.953 10.7386C140.845 10.7386 141.626 10.9176 142.297 11.2756C142.967 11.6278 143.487 12.1705 143.857 12.9034C144.232 13.6307 144.419 14.5568 144.419 15.6818V24H142.408V15.8182C142.408 14.7784 142.138 13.9744 141.598 13.4062C141.064 12.8324 140.322 12.5455 139.374 12.5455C138.714 12.5455 138.124 12.6847 137.601 12.9631C137.084 13.2415 136.675 13.6477 136.374 14.1818C136.078 14.7159 135.93 15.3636 135.93 16.125ZM151.951 24.3068C151.121 24.3068 150.369 24.1506 149.692 23.8381C149.016 23.5199 148.479 23.0625 148.082 22.4659C147.684 21.8636 147.485 21.1364 147.485 20.2841C147.485 19.5341 147.633 18.9261 147.928 18.4602C148.224 17.9886 148.619 17.6193 149.113 17.3523C149.607 17.0852 150.153 16.8864 150.749 16.7557C151.352 16.6193 151.957 16.5114 152.565 16.4318C153.36 16.3295 154.005 16.2528 154.499 16.2017C154.999 16.1449 155.363 16.0511 155.59 15.9205C155.823 15.7898 155.94 15.5625 155.94 15.2386V15.1705C155.94 14.3295 155.71 13.6761 155.249 13.2102C154.795 12.7443 154.104 12.5114 153.178 12.5114C152.218 12.5114 151.465 12.7216 150.92 13.142C150.374 13.5625 149.991 14.0114 149.769 14.4886L147.86 13.8068C148.201 13.0114 148.656 12.392 149.224 11.9489C149.798 11.5 150.423 11.1875 151.099 11.0114C151.781 10.8295 152.451 10.7386 153.11 10.7386C153.531 10.7386 154.013 10.7898 154.559 10.892C155.11 10.9886 155.641 11.1903 156.153 11.4972C156.67 11.804 157.099 12.267 157.44 12.8864C157.781 13.5057 157.951 14.3352 157.951 15.375V24H155.94V22.2273H155.837C155.701 22.5114 155.474 22.8153 155.156 23.1392C154.837 23.4631 154.414 23.7386 153.886 23.9659C153.357 24.1932 152.712 24.3068 151.951 24.3068ZM152.258 22.5C153.053 22.5 153.724 22.3438 154.269 22.0312C154.82 21.7188 155.235 21.3153 155.513 20.821C155.798 20.3267 155.94 19.8068 155.94 19.2614V17.4205C155.854 17.5227 155.667 17.6165 155.377 17.7017C155.093 17.7812 154.763 17.8523 154.388 17.9148C154.019 17.9716 153.658 18.0227 153.306 18.0682C152.96 18.108 152.678 18.142 152.462 18.1705C151.94 18.2386 151.451 18.3494 150.996 18.5028C150.548 18.6506 150.184 18.875 149.906 19.1761C149.633 19.4716 149.496 19.875 149.496 20.3864C149.496 21.0852 149.755 21.6136 150.272 21.9716C150.795 22.3239 151.457 22.5 152.258 22.5ZM163.634 16.125V24H161.622V10.9091H163.565V12.9545H163.736C164.043 12.2898 164.509 11.7557 165.134 11.3523C165.759 10.9432 166.565 10.7386 167.554 10.7386C168.44 10.7386 169.216 10.9205 169.881 11.2841C170.545 11.642 171.063 12.1875 171.432 12.9205C171.801 13.6477 171.986 14.5682 171.986 15.6818V24H169.974V15.8182C169.974 14.7898 169.707 13.9886 169.173 13.4148C168.639 12.8352 167.906 12.5455 166.974 12.5455C166.332 12.5455 165.759 12.6847 165.253 12.9631C164.753 13.2415 164.358 13.6477 164.068 14.1818C163.778 14.7159 163.634 15.3636 163.634 16.125ZM181.354 10.9091V12.6136H174.57V10.9091H181.354ZM176.548 7.77273H178.559V20.25C178.559 20.8182 178.641 21.2443 178.806 21.5284C178.977 21.8068 179.192 21.9943 179.454 22.0909C179.721 22.1818 180.002 22.2273 180.298 22.2273C180.519 22.2273 180.701 22.2159 180.843 22.1932C180.985 22.1648 181.099 22.142 181.184 22.125L181.593 23.9318C181.457 23.983 181.266 24.0341 181.022 24.0852C180.778 24.142 180.468 24.1705 180.093 24.1705C179.525 24.1705 178.968 24.0483 178.423 23.804C177.883 23.5597 177.434 23.1875 177.076 22.6875C176.724 22.1875 176.548 21.5568 176.548 20.7955V7.77273ZM184.38 24V10.9091H186.391V24H184.38ZM185.403 8.72727C185.011 8.72727 184.673 8.59375 184.388 8.3267C184.11 8.05966 183.971 7.73864 183.971 7.36364C183.971 6.98864 184.11 6.66761 184.388 6.40057C184.673 6.13352 185.011 6 185.403 6C185.795 6 186.13 6.13352 186.408 6.40057C186.692 6.66761 186.835 6.98864 186.835 7.36364C186.835 7.73864 186.692 8.05966 186.408 8.3267C186.13 8.59375 185.795 8.72727 185.403 8.72727ZM195.564 24.2727C194.303 24.2727 193.214 23.9943 192.3 23.4375C191.391 22.875 190.689 22.0909 190.195 21.0852C189.706 20.0739 189.462 18.8977 189.462 17.5568C189.462 16.2159 189.706 15.0341 190.195 14.0114C190.689 12.983 191.376 12.1818 192.257 11.608C193.143 11.0284 194.178 10.7386 195.359 10.7386C196.041 10.7386 196.714 10.8523 197.379 11.0795C198.044 11.3068 198.649 11.6761 199.195 12.1875C199.74 12.6932 200.175 13.3636 200.499 14.1989C200.822 15.0341 200.984 16.0625 200.984 17.2841V18.1364H190.893V16.3977H198.939C198.939 15.6591 198.791 15 198.496 14.4205C198.206 13.8409 197.791 13.3835 197.251 13.0483C196.717 12.7131 196.087 12.5455 195.359 12.5455C194.558 12.5455 193.865 12.7443 193.28 13.142C192.7 13.5341 192.254 14.0455 191.942 14.6761C191.629 15.3068 191.473 15.983 191.473 16.7045V17.8636C191.473 18.8523 191.643 19.6903 191.984 20.3778C192.331 21.0597 192.811 21.5795 193.425 21.9375C194.038 22.2898 194.751 22.4659 195.564 22.4659C196.092 22.4659 196.57 22.392 196.996 22.2443C197.428 22.0909 197.8 21.8636 198.112 21.5625C198.425 21.2557 198.666 20.875 198.837 20.4205L200.78 20.9659C200.575 21.625 200.232 22.2045 199.749 22.7045C199.266 23.1989 198.669 23.5852 197.959 23.8636C197.249 24.1364 196.45 24.2727 195.564 24.2727ZM204.044 24V10.9091H205.987V12.8864H206.124C206.362 12.2386 206.794 11.7131 207.419 11.3097C208.044 10.9062 208.749 10.7045 209.533 10.7045C209.68 10.7045 209.865 10.7074 210.087 10.7131C210.308 10.7187 210.476 10.7273 210.589 10.7386V12.7841C210.521 12.767 210.365 12.7415 210.121 12.7074C209.882 12.6676 209.629 12.6477 209.362 12.6477C208.726 12.6477 208.158 12.7812 207.658 13.0483C207.163 13.3097 206.771 13.6733 206.482 14.1392C206.197 14.5994 206.055 15.125 206.055 15.7159V24H204.044ZM222.246 13.8409L220.44 14.3523C220.326 14.0511 220.158 13.7585 219.937 13.4744C219.721 13.1847 219.425 12.946 219.05 12.7585C218.675 12.571 218.195 12.4773 217.61 12.4773C216.809 12.4773 216.141 12.6619 215.607 13.0312C215.079 13.3949 214.815 13.858 214.815 14.4205C214.815 14.9205 214.996 15.3153 215.36 15.6051C215.724 15.8949 216.292 16.1364 217.065 16.3295L219.008 16.8068C220.178 17.0909 221.05 17.5256 221.624 18.1108C222.198 18.6903 222.485 19.4375 222.485 20.3523C222.485 21.1023 222.269 21.7727 221.837 22.3636C221.411 22.9545 220.815 23.4205 220.048 23.7614C219.281 24.1023 218.388 24.2727 217.371 24.2727C216.036 24.2727 214.931 23.983 214.056 23.4034C213.181 22.8239 212.627 21.9773 212.394 20.8636L214.303 20.3864C214.485 21.0909 214.829 21.6193 215.335 21.9716C215.846 22.3239 216.513 22.5 217.337 22.5C218.275 22.5 219.019 22.3011 219.57 21.9034C220.127 21.5 220.406 21.017 220.406 20.4545C220.406 20 220.246 19.6193 219.928 19.3125C219.61 19 219.121 18.767 218.462 18.6136L216.281 18.1023C215.082 17.8182 214.201 17.3778 213.638 16.7812C213.082 16.179 212.803 15.4261 212.803 14.5227C212.803 13.7841 213.011 13.1307 213.425 12.5625C213.846 11.9943 214.417 11.5483 215.138 11.2244C215.866 10.9006 216.69 10.7386 217.61 10.7386C218.906 10.7386 219.923 11.0227 220.661 11.5909C221.406 12.1591 221.934 12.9091 222.246 13.8409ZM232.263 24V10.9091H234.274V24H232.263ZM233.286 8.72727C232.893 8.72727 232.555 8.59375 232.271 8.3267C231.993 8.05966 231.854 7.73864 231.854 7.36364C231.854 6.98864 231.993 6.66761 232.271 6.40057C232.555 6.13352 232.893 6 233.286 6C233.678 6 234.013 6.13352 234.291 6.40057C234.575 6.66761 234.717 6.98864 234.717 7.36364C234.717 7.73864 234.575 8.05966 234.291 8.3267C234.013 8.59375 233.678 8.72727 233.286 8.72727ZM239.969 16.125V24H237.958V10.9091H239.901V12.9545H240.072C240.379 12.2898 240.844 11.7557 241.469 11.3523C242.094 10.9432 242.901 10.7386 243.89 10.7386C244.776 10.7386 245.552 10.9205 246.217 11.2841C246.881 11.642 247.398 12.1875 247.768 12.9205C248.137 13.6477 248.322 14.5682 248.322 15.6818V24H246.31V15.8182C246.31 14.7898 246.043 13.9886 245.509 13.4148C244.975 12.8352 244.242 12.5455 243.31 12.5455C242.668 12.5455 242.094 12.6847 241.589 12.9631C241.089 13.2415 240.694 13.6477 240.404 14.1818C240.114 14.7159 239.969 15.3636 239.969 16.125ZM257.315 24.2727C256.088 24.2727 255.031 23.983 254.145 23.4034C253.259 22.8239 252.577 22.0256 252.099 21.0085C251.622 19.9915 251.384 18.8295 251.384 17.5227C251.384 16.1932 251.628 15.0199 252.116 14.0028C252.611 12.9801 253.298 12.1818 254.179 11.608C255.065 11.0284 256.099 10.7386 257.281 10.7386C258.202 10.7386 259.031 10.9091 259.77 11.25C260.509 11.5909 261.114 12.0682 261.585 12.6818C262.057 13.2955 262.349 14.0114 262.463 14.8295H260.452C260.298 14.233 259.957 13.7045 259.429 13.2443C258.906 12.7784 258.202 12.5455 257.315 12.5455C256.531 12.5455 255.844 12.75 255.253 13.1591C254.668 13.5625 254.21 14.1335 253.881 14.8722C253.557 15.6051 253.395 16.4659 253.395 17.4545C253.395 18.4659 253.554 19.3466 253.872 20.0966C254.196 20.8466 254.651 21.429 255.236 21.8438C255.827 22.2585 256.52 22.4659 257.315 22.4659C257.838 22.4659 258.312 22.375 258.739 22.1932C259.165 22.0114 259.526 21.75 259.821 21.4091C260.116 21.0682 260.327 20.6591 260.452 20.1818H262.463C262.349 20.9545 262.068 21.6506 261.619 22.2699C261.176 22.8835 260.588 23.3722 259.855 23.7358C259.128 24.0938 258.281 24.2727 257.315 24.2727ZM266.869 24.1364C266.449 24.1364 266.088 23.9858 265.787 23.6847C265.486 23.3835 265.335 23.0227 265.335 22.6023C265.335 22.1818 265.486 21.821 265.787 21.5199C266.088 21.2187 266.449 21.0682 266.869 21.0682C267.29 21.0682 267.651 21.2187 267.952 21.5199C268.253 21.821 268.403 22.1818 268.403 22.6023C268.403 22.8807 268.332 23.1364 268.19 23.3693C268.054 23.6023 267.869 23.7898 267.636 23.9318C267.409 24.0682 267.153 24.1364 266.869 24.1364Z" fill="#26203B"/>
</svg>
